<?xml version="1.0" encoding="utf-8"?>
<!-- Generator: Adobe Illustrator 16.0.0, SVG Export Plug-In . SVG Version: 6.00 Build 0)  -->
<!DOCTYPE svg PUBLIC "-//W3C//DTD SVG 1.1//EN" "http://www.w3.org/Graphics/SVG/1.1/DTD/svg11.dtd">
<svg version="1.1" id="Layer_1" xmlns="http://www.w3.org/2000/svg" xmlns:xlink="http://www.w3.org/1999/xlink" x="0px" y="0px"
	 width="408.285px" height="100px" viewBox="0 0 408.285 100" enable-background="new 0 0 408.285 100" xml:space="preserve">
<g>
	<g>
		<polygon fill="#010101" points="114.591,48.539 114.591,48.537 114.591,48.539 		"/>
		<path fill="#010101" d="M389.021,73.419l0.138,0.002c8.263,0,14.078-5.725,14.141-13.918c0.031-4.057-1.141-7.77-3.3-10.453
			c-2.283-2.84-5.479-4.355-9.244-4.384h-0.075c-5.081,0-9.799,3.855-14.424,11.787l-0.368,0.633l-0.237-0.691
			c-1.168-3.4-2.208-6.232-2.83-7.926c-0.435-1.182-0.628-1.713-0.673-1.885c-0.222-0.858-0.956-1.391-1.917-1.391
			c-0.591,0-1.219,0.201-1.813,0.579c-0.589,0.375-0.918,0.833-1.036,1.445l-0.03,0.092c-4.629,14.436-8.446,21.447-11.679,21.447
			c-0.47-0.004-0.838-0.158-1.112-0.463c-0.847-0.936-0.639-3.162-0.351-6.244c0.211-2.264,0.452-4.828,0.352-7.547
			c-0.191-5.229-3.052-8.369-7.652-8.404c-5.845-0.002-9.634,6.223-11.379,9.934l-0.521,1.107l-0.115-1.219
			c-0.436-4.592-1.977-10.077-6.843-10.114c-5.676,0-10,6.661-12.638,12.25l-0.707,1.498l0.07-1.654
			c0.314-7.455,0.571-11.857,0.765-13.078c0.192-1.225,0.091-2.047-0.31-2.518c-0.379-0.441-1.095-0.604-2.145-0.538
			c-1.817,0.115-2.746,1.221-4.146,4.928c-2.297,6.088-8.142,20.252-12.809,20.252c-0.926-0.006-1.659-0.322-2.196-0.938
			c-1.957-2.244-1.174-8.309-0.091-16.703l0.082-0.635c0.512-3.974-0.362-4.822-2.52-5.219c-0.232-0.042-0.453-0.064-0.656-0.064
			c-1.724,0-2.53,1.651-4.14,6.239c-2.865,8.164-6.549,16.75-10.858,16.75c-0.158,0-0.314-0.012-0.472-0.037
			c-2.283-0.389-2.233-3.775-2.17-8.066c0.033-2.32,0.072-4.951-0.286-7.326c-0.643-4.262-3.154-6.923-6.554-6.95
			c-6.785,0-11.36,8.688-13.488,13.868l-0.482,1.172l-0.16-1.258c-0.285-2.246-0.661-5.805-0.824-10.014l-0.005-0.125l0.077-0.098
			c12.697-15.983,18.394-27.517,18.47-37.399C269.909,3.83,266.996,0.038,262.069,0c-3.602,0-12.169,3-15.145,30.797
			c-0.553,5.154-0.856,10.439-0.901,15.708l-0.001,0.104l-0.059,0.084c-5.809,8.408-18.207,22.871-30.345,22.871
			c-10.967,0-19.717-8.873-19.717-24.535c0-20.996,14.862-33.887,26.045-33.887l0.093,0c2.43,0.019,4.514,0.697,6.026,1.963
			c1.571,1.314,2.393,3.156,2.376,5.326c-0.022,2.899-0.966,4.389-1.879,5.828c-0.234,0.371-0.468,0.739-0.682,1.129
			c-0.216,0.393-0.413,0.965-0.126,1.454c0.294,0.501,1.045,0.816,1.96,0.823c2.662,0,6.688-3.854,6.732-9.66
			c0.046-6.077-5.073-12.339-14.206-12.339c-13.821,0-32.435,15.184-32.435,39.792c0,17.407,10.914,29.438,25.698,29.438
			c10.491,0,20.869-7.512,30.06-20.059l0.563-0.76l0.04,0.945c0.195,4.592,0.528,8.211,0.772,10.854
			c0.157,1.699,0.271,2.926,0.266,3.604c-0.012,1.484,0.23,2.514,0.742,3.146c0.511,0.633,1.324,0.932,2.555,0.941
			c2.064,0,2.478-1.408,3.295-4.879l0.235-0.992c1.016-4.207,4.768-17.938,10.411-17.938c0.922,0.008,1.633,0.281,2.138,0.816
			c1.246,1.322,1.11,4.035,0.952,7.178c-0.099,1.961-0.2,3.986-0.004,5.959c0.532,5.326,2.831,7.93,7.031,7.961
			c4.312,0.002,8.812-4.643,11.186-8.959l0.448-0.814l0.175,0.914c0.438,2.309,2.398,9.891,8.535,9.891
			c5.563,0,10.334-5.857,15.565-17.912l0.684-1.574l-0.042,1.717c-0.111,4.568-0.358,10.146-0.36,14.459
			c-0.002,3.336,0.335,4.609,1.877,4.609c0.109,0,0.228,0.016,0.35,0.016c1.479,0,2.483-0.883,2.984-2.629
			c3.935-13.717,7.337-20.105,10.707-20.105c3.3,0.025,3.609,6.059,3.874,16.721l0.018,0.748c0.08,3.729,0.214,5.379,2.531,5.396
			c1.758,0,2.195-1.381,3.104-4.781c0.174-0.648,0.363-1.359,0.585-2.127c3.178-11.025,5.812-15.523,9.092-15.523
			c2.808,0.021,2.964,2.916,3.016,3.867c0.108,2.037-0.102,4.17-0.304,6.229c-0.188,1.914-0.383,3.893-0.31,5.734
			c0.172,4.312,2.533,6.705,6.649,6.736c5.342,0,10.164-6.248,14.387-18.566l0.293-0.859l0.335,0.844
			c0.766,1.936,1.764,4.557,2.688,7.684l0.035,0.119l-0.051,0.113c-4.089,9.08-6.974,19.195-7.015,24.598
			c-0.055,7.117,3.165,11.742,8.204,11.781h0.087c2.741,0,9.13-1.1,9.254-11.285c0.05-4.174-0.936-10.076-2.929-17.545l-0.229-0.855
			l0.736,0.49C383.267,72.492,386.136,73.396,389.021,73.419z M251.335,38.881c0.114-2.552,0.329-5.038,0.634-7.387
			c1.977-15.142,6.104-25.716,10.039-25.716h0.017c1.876,0.014,2.815,1.433,2.795,4.215c-0.053,6.837-4.385,16.625-12.874,29.092
			l-0.664,0.976L251.335,38.881z M376.808,93.318c-0.626,0.834-1.498,1.256-2.59,1.256c-1.254-0.01-2.196-0.447-2.837-1.303
			c-1.796-2.4-1.29-8.039,1.64-18.277c0.35-1.223,0.73-2.453,1.131-3.656l0.34-1.021l0.299,1.033
			C378.205,83.167,378.883,90.558,376.808,93.318z M377.869,63.042l-0.062-0.113l-0.124-0.393l0.057-0.117
			c3.893-8.02,8.352-12.617,12.233-12.617h0.04c4.382,0.033,7.412,3.977,7.37,9.586c-0.029,3.744-1.68,5.9-3.058,7.049
			c-1.573,1.312-3.668,2.062-5.748,2.062C383.449,68.46,379.93,65.511,377.869,63.042z"/>
		<path fill="#010101" d="M389.974,50.14v-0.004V50.14z"/>
		<path fill="#010101" d="M129.634,72.095c6.008-0.482,10.774-8.652,12.544-12.143l0.456-0.9l0.173,0.994
			c0.849,4.91,3.52,13.16,11.875,13.225h0.07c3.614,0,7.714-2.211,11.858-6.391l0.304-0.307l0.221,0.369
			c2.79,4.666,6.532,7.145,10.515,6.941c5.866-0.305,9.425-4.461,9.739-7.348c0.08-0.736-0.115-1.428-0.535-1.896
			c-0.528-0.588-1.293-0.656-1.856-0.117l-0.268,0.254c-1.366,1.311-3.91,3.754-6.681,3.898c-3.394,0.166-5.904-1.863-7.526-6.051
			l-0.068-0.176l0.114-0.148c9.333-12.207,15.882-30.833,15.236-43.326c-0.298-5.782-1.98-12.675-8.294-12.675
			c-0.154,0-0.312,0.004-0.471,0.012c-2.419,0.125-4.619,1.278-6.539,3.425c-5.859,6.555-8.925,22.689-7.812,41.104
			c0.231,3.826,0.895,7.402,1.974,10.625l0.061,0.18l-0.123,0.145c-3.463,4.047-6.88,6.277-9.622,6.277
			c-6.597,0-6.375-11.061-5.854-20.234c0.113-1.978,0.28-3.238-0.305-3.954c-0.418-0.513-1.118-0.766-2.137-0.774l-0.12-0.001
			c-2.347,0-2.838,0.483-4.04,3.967c-2.499,7.238-7.431,19.385-12.393,19.385c-1.375-0.012-2.425-0.482-3.144-1.398
			c-2.407-3.072-0.579-10.734,0.889-16.893c0.264-1.107,0.517-2.17,0.734-3.154c0.322-1.46,0.223-2.525-0.293-3.17
			c-0.517-0.643-1.55-0.903-2.914-0.795c-2.125,0.17-3.484,1.06-4.14,5.101l-0.132,0.84l-0.494-0.598
			c-0.928-1.37-2.738-3.002-6.096-3.002c-0.294,0-0.599,0.012-0.914,0.037c-3.584,0.294-7.666,2.792-10.652,6.518
			c-3.488,4.352-5.154,9.859-4.69,15.508c0.025,0.299,0.068,0.586,0.111,0.871l0.024,0.158l-0.108,0.119
			c-2.086,2.273-4.212,3.426-6.319,3.426c-3.25-0.025-5.116-2.441-5.116-6.465c0-6.775,4.591-27.197,4.591-34.59
			c0-7.868-3.506-12.151-9.594-12.198l-0.092,0c-8.889,0-15.818,10.087-22.448,30.841c-0.607,1.9-1.268,4.096-1.834,5.994
			l-0.931,3.121l0.276-3.244c0.616-7.23,1.039-14.263,1.257-20.907c0.33-10.03-1.026-16.485-4.146-19.733
			c-1.683-1.752-3.909-2.615-6.809-2.637h-0.077c-10.878,0-16.089,18.346-19.883,31.291c-1.145,3.908-3.403,12.723-4.91,18.749
			l0.893-1.451c0.669-7.588,2.608-26.595,2.481-36.906c-0.137-11.062-3.82-16.021-11.945-16.083h-0.1
			c-4.339,0-7.35,2.157-9.112,3.966c-2.828,2.904-4.59,7.148-4.492,10.813c0.06,2.228,1.427,4.211,2.463,4.211
			c0.675,0,1.049-0.901,1.211-1.438C6.192,15.049,9.444,11.01,13.62,11.01c1.732,0.013,3.02,0.523,3.985,1.56
			c3.261,3.499,2.668,12.947,1.592,30.1c-0.347,5.528-0.74,11.792-1.071,18.917c-0.057,1.223-0.133,2.402-0.206,3.525
			c-0.317,4.947-0.569,8.857,1.308,9.148c2.441,0.381,4.031-0.611,4.844-3.027c1.206-3.586,3.911-13.387,9.145-31.296
			c5.022-17.186,8.816-23.439,13.67-23.439c5.608,0,6.026,9.629,4.998,29.949c-0.219,4.307-0.512,9.186-0.737,14.496
			c-0.032,0.746-0.067,1.469-0.102,2.166c-0.216,4.396-0.386,7.865,0.87,9.195c0.392,0.414,0.924,0.619,1.629,0.623
			c2.431,0,3.162-2.131,4.373-5.664c0.214-0.623,0.441-1.289,0.694-1.986c8.33-22.979,14.49-42.916,22.756-42.916
			c2.48,0,4.409,2.014,4.409,5.942c0,9.067-4.433,26.587-4.433,35.47c0,3.182,0.916,6.039,2.646,8.047
			c1.777,2.061,4.261,3.16,7.186,3.184h0.064c2.766,0,5.648-1.344,8.568-3.994l0.274-0.248l0.22,0.297
			c1.923,2.584,5.025,3.973,8.375,3.715c5.138-0.4,9.449-4.975,11.053-9.289l0.313-0.844l0.313,0.844
			C121.547,68.683,124.125,72.541,129.634,72.095z M176.979,12.052l0.088-0.002c0.586,0,1.102,0.294,1.531,0.876
			c2.041,2.758,2.071,12.825-1.438,24.279c-2.005,6.546-4.702,12.73-7.796,17.882l-0.494,0.82l-0.126-0.949
			c-0.364-2.77-0.543-5.654-0.67-8.109C167.178,29.536,172.416,12.289,176.979,12.052z M119.97,52.515
			c-1.798,7.236-5.247,15.969-11.463,16.469c-0.174,0.012-0.343,0.021-0.506,0.021c-2.579,0-4.025-1.689-4.298-5.02
			c-0.342-4.168,1.456-9.049,4.577-12.438c1.988-2.158,4.229-3.346,6.312-3.346h0.042c2.629,0.02,4.472,2.131,5.319,4.1l0.045,0.102
			L119.97,52.515z"/>
		<path fill="#010101" d="M262.008,6.113L262.008,6.113L262.008,6.113z"/>
		<path fill="#010101" d="M148.806,25.99c-2.295,0-4.149,1.808-4.166,4.031c-0.018,2.239,1.824,4.075,4.103,4.092l0.033,0.333l0,0
			v-0.333c2.262,0,4.115-1.807,4.132-4.029C152.927,27.844,151.086,26.008,148.806,25.99z"/>
		<path fill="#010101" d="M293.099,25.99c-2.295,0-4.148,1.808-4.166,4.031c-0.018,2.239,1.823,4.075,4.104,4.092l0.032,0.333l0,0
			v-0.333c2.264,0,4.117-1.807,4.134-4.029C297.219,27.844,295.379,26.008,293.099,25.99z"/>
	</g>
	<g>
		<path fill="#020202" d="M405.466,68.835c-1.553,0-2.818,1.266-2.818,2.82c0,1.553,1.266,2.816,2.818,2.816
			c1.554,0,2.819-1.264,2.819-2.816C408.285,70.101,407.02,68.835,405.466,68.835z M405.466,74.064
			c-1.334,0-2.409-1.074-2.409-2.408s1.075-2.41,2.409-2.41c1.333,0,2.41,1.076,2.41,2.41S406.799,74.064,405.466,74.064z"/>
		<path fill="#020202" d="M406.715,70.919c0-0.582-0.286-0.9-1.022-0.9h-1.25v3.248h0.41v-1.422h0.583l0.97,1.422h0.462l-0.97-1.422
			C406.338,71.769,406.715,71.519,406.715,70.919z M405.376,71.48h-0.523v-1.098h0.727c0.349,0,0.728,0.121,0.728,0.537
			C406.307,71.458,405.822,71.48,405.376,71.48z"/>
	</g>
</g>
</svg>
